# xmcd CD database file
#
# Track frame offsets:
#	150
#	940
#	46774
#	114242
#	173722
#	241500
#
# Disc length: 4032 seconds
#
# Revision: 0
# Processed by: cddbd v1.5.1PL0 Copyright (c) Steve Scherf et al.
# Submitted via: CDex 1.51
#
DISCID=2e0fbe06
DTITLE=Bill Shiell - Live at the Artist's Quarter
DYEAR=1986
DGENRE=Jazz
TTITLE0=Spoken Intro
TTITLE1=Good Bait
TTITLE2=Caravan
TTITLE3=Blue Moon
TTITLE4=A Night in Tunisia
TTITLE5=Invitation
EXTD=YEAR: 1986
EXTT0=
EXTT1=
EXTT2=
EXTT3=
EXTT4=
EXTT5=
PLAYORDER=
